# xmcd CD database file
#
# Track frame offsets:
#	150
#	20267
#	40145
#	65100
#	87474
#	108093
#	127076
#	145867
#	158112
#	177103
#	193788
#	214907
#
# Disc length: 3089 seconds
#
# Revision: 4
# Processed by: cddbd v1.5.1PL2 Copyright (c) Steve Scherf et al.
# Submitted via: CDex 1.51
#
DISCID=aa0c0f0c
DTITLE=木村カエラ - KAELA
DYEAR=2004
DGENRE=JPop
TTITLE0=untie(album take)
TTITLE1=You know you love me?
TTITLE2=あの頃
TTITLE3=happiness!!!
TTITLE4=INVENTOR
TTITLE5=D.T.S.
TTITLE6=Level 42(album take)
TTITLE7=誰
TTITLE8=Because
TTITLE9=weak
TTITLE10=Whatever are you looking for?(album take)
TTITLE11=sola
EXTD=YEAR: 2004
EXTT0=
EXTT1=
EXTT2=
EXTT3=
EXTT4=
EXTT5=
EXTT6=
EXTT7=
EXTT8=
EXTT9=
EXTT10=
EXTT11=
PLAYORDER=
